STARTFONT 2.1
COMMENT $XConsortium: lubBI18.bdf,v 1.10 94/04/02 16:00:46 gildea Exp $
COMMENT  (c) Copyright Bigelow & Holmes 1986, 1985. Lucida is a registered
COMMENT  trademark of Bigelow & Holmes. See LEGAL NOTICE file for terms 
COMMENT  of the license. 
COMMENT  
COMMENT  Translation to ISO8859-2 by Cub Soft;  Petr.Kolar@vslib.cz
COMMENT  
FONT -B&H-LucidaBright-DemiBold-I-Normal--18-180-75-75-P-107-ISO8859-2
SIZE 18 72 72
FONTBOUNDINGBOX 34 21 -11 -4
STARTPROPERTIES 20
COMMENT Begin LogicalFontDescription
FONTNAME_REGISTRY ""
FOUNDRY "B&H"
FAMILY_NAME "LucidaBright"
WEIGHT_NAME "DemiBold"
SLANT "I"
SETWIDTH_NAME "Normal"
ADD_STYLE_NAME ""
PIXEL_SIZE 18
POINT_SIZE 180
RESOLUTION_X 75
RESOLUTION_Y 75
SPACING "P"
AVERAGE_WIDTH 107
CHARSET_REGISTRY "ISO8859"
CHARSET_ENCODING "2"
COMMENT END LogicalFontDescription
FONT_ASCENT 16
FONT_DESCENT 4
DEFAULT_CHAR 0
COPYRIGHT "Copyright Bigelow & Holmes 1986, 1985., Copyright 1996 Cub Soft"
FACE_NAME "Lucida Bright Demibold Italic"
ENDPROPERTIES
CHARS 191
STARTCHAR space
ENCODING 32
SWIDTH 333 0
DWIDTH 6 0
BBX 1 1 0 0
BITMAP
00
ENDCHAR
STARTCHAR exclam
ENCODING 33
SWIDTH 265 0
DWIDTH 5 0
BBX 5 13 1 0
BITMAP
38
38
38
30
30
30
20
60
60
00
00
e0
e0
ENDCHAR
STARTCHAR quotedbl
ENCODING 34
SWIDTH 451 0
DWIDTH 8 0
BBX 7 5 3 8
BITMAP
ee
cc
cc
4c
44
ENDCHAR
STARTCHAR numbersign
ENCODING 35
SWIDTH 636 0
DWIDTH 12 0
BBX 11 13 2 0
BITMAP
0220
0240
0440
0480
7fe0
0900
1100
1200
ffc0
2400
4400
4800
c800
ENDCHAR
STARTCHAR dollar
ENCODING 36
SWIDTH 636 0
DWIDTH 11 0
BBX 10 15 2 -1
BITMAP
0200
0fc0
1ac0
32c0
3400
3c00
1c00
0e00
0f00
0b80
0b80
cb00
cf00
fc00
1000
ENDCHAR
STARTCHAR percent
ENCODING 37
SWIDTH 772 0
DWIDTH 14 0
BBX 12 13 2 0
BITMAP
3830
6c60
cc40
cc80
cd80
7300
06e0
0db0
0b30
1330
3330
6360
c1c0
ENDCHAR
STARTCHAR ampersand
ENCODING 38
SWIDTH 773 0
DWIDTH 14 0
BBX 13 13 2 0
BITMAP
0780
0cc0
0cc0
0cc0
0d80
0e00
3678
6630
e720
e340
e380
61c0
3ee0
ENDCHAR
STARTCHAR apostrophe
ENCODING 39
SWIDTH 265 0
DWIDTH 5 0
BBX 4 5 3 8
BITMAP
70
70
20
60
c0
ENDCHAR
STARTCHAR parenleft
ENCODING 40
SWIDTH 336 0
DWIDTH 6 0
BBX 7 16 2 -3
BITMAP
06
0c
18
30
30
60
60
e0
e0
c0
c0
c0
c0
60
20
20
ENDCHAR
STARTCHAR parenright
ENCODING 41
SWIDTH 336 0
DWIDTH 6 0
BBX 7 16 0 -3
BITMAP
10
08
0c
0c
0c
0e
0c
0c
0c
0c
18
18
30
20
40
80
ENDCHAR
STARTCHAR asterisk
ENCODING 42
SWIDTH 434 0
DWIDTH 8 0
BBX 7 7 3 6
BITMAP
18
5a
d6
6c
38
ec
48
ENDCHAR
STARTCHAR plus
ENCODING 43
SWIDTH 636 0
DWIDTH 11 0
BBX 11 11 1 0
BITMAP
0200
0200
0600
0600
0400
ffe0
0400
0c00
0c00
0800
0800
ENDCHAR
STARTCHAR comma
ENCODING 44
SWIDTH 265 0
DWIDTH 5 0
BBX 4 6 0 -3
BITMAP
70
70
70
20
60
c0
ENDCHAR
STARTCHAR minus
ENCODING 45
SWIDTH 636 0
DWIDTH 11 0
BBX 11 1 1 5
BITMAP
ffe0
ENDCHAR
STARTCHAR period
ENCODING 46
SWIDTH 265 0
DWIDTH 5 0
BBX 3 3 1 0
BITMAP
e0
e0
e0
ENDCHAR
STARTCHAR slash
ENCODING 47
SWIDTH 515 0
DWIDTH 9 0
BBX 12 16 0 -3
BITMAP
0030
0020
0040
00c0
0080
0100
0300
0200
0400
0c00
0800
1000
3000
2000
4000
c000
ENDCHAR
STARTCHAR zero
ENCODING 48
SWIDTH 623 0
DWIDTH 11 0
BBX 11 13 2 0
BITMAP
0f80
19c0
30c0
70c0
60e0
e0c0
e0c0
e1c0
e1c0
e180
e300
6700
3c00
ENDCHAR
STARTCHAR one
ENCODING 49
SWIDTH 636 0
DWIDTH 11 0
BBX 7 13 3 0
BITMAP
3e
0e
0e
0c
0c
1c
1c
1c
18
18
18
38
fe
ENDCHAR
STARTCHAR two
ENCODING 50
SWIDTH 636 0
DWIDTH 11 0
BBX 11 13 1 0
BITMAP
0f80
11e0
30e0
00e0
00e0
01c0
0300
0c00
1000
2000
6000
ff80
ff80
ENDCHAR
STARTCHAR three
ENCODING 51
SWIDTH 636 0
DWIDTH 11 0
BBX 10 13 2 0
BITMAP
1f80
11c0
31c0
01c0
0180
0300
3f00
0380
0380
0380
c380
c700
fc00
ENDCHAR
STARTCHAR four
ENCODING 52
SWIDTH 636 0
DWIDTH 11 0
BBX 10 13 1 0
BITMAP
01c0
03c0
0780
0d80
1980
3180
6380
c300
ffc0
0300
0300
0700
0f80
ENDCHAR
STARTCHAR five
ENCODING 53
SWIDTH 636 0
DWIDTH 11 0
BBX 11 13 2 0
BITMAP
1fe0
1fc0
2000
2000
2000
3c00
0700
0380
0380
0380
c300
c700
fc00
ENDCHAR
STARTCHAR six
ENCODING 54
SWIDTH 636 0
DWIDTH 11 0
BBX 11 13 2 0
BITMAP
07c0
1c60
3840
7000
7000
ef00
f380
e1c0
e1c0
e180
e180
6300
3e00
ENDCHAR
STARTCHAR seven
ENCODING 55
SWIDTH 636 0
DWIDTH 11 0
BBX 10 13 3 0
BITMAP
7fc0
7fc0
0080
0100
0200
0600
0c00
1800
3000
7000
6000
e000
e000
ENDCHAR
STARTCHAR eight
ENCODING 56
SWIDTH 636 0
DWIDTH 11 0
BBX 11 13 2 0
BITMAP
0f80
18c0
38e0
38c0
38c0
1f00
1f80
63c0
e1c0
e1c0
e180
f100
3e00
ENDCHAR
STARTCHAR nine
ENCODING 57
SWIDTH 636 0
DWIDTH 11 0
BBX 11 13 1 0
BITMAP
0f00
19c0
30c0
70e0
60e0
70e0
71c0
3fc0
01c0
0180
c300
c600
fc00
ENDCHAR
STARTCHAR colon
ENCODING 58
SWIDTH 265 0
DWIDTH 5 0
BBX 5 9 1 0
BITMAP
38
38
38
00
00
00
e0
e0
e0
ENDCHAR
STARTCHAR semicolon
ENCODING 59
SWIDTH 265 0
DWIDTH 5 0
BBX 5 12 0 -3
BITMAP
38
38
38
00
00
00
70
60
60
60
60
c0
ENDCHAR
STARTCHAR less
ENCODING 60
SWIDTH 636 0
DWIDTH 11 0
BBX 11 11 2 0
BITMAP
0020
00e0
0380
0e00
3800
e000
3000
1c00
0700
0180
0080
ENDCHAR
STARTCHAR equal
ENCODING 61
SWIDTH 636 0
DWIDTH 11 0
BBX 11 4 1 3
BITMAP
7fe0
0000
0000
ffc0
ENDCHAR
STARTCHAR greater
ENCODING 62
SWIDTH 636 0
DWIDTH 11 0
BBX 11 11 1 0
BITMAP
2000
3000
1c00
0700
0180
00e0
0380
0e00
3800
e000
8000
ENDCHAR
STARTCHAR question
ENCODING 63
SWIDTH 493 0
DWIDTH 9 0
BBX 8 13 2 0
BITMAP
7e
47
c7
07
06
0c
18
30
70
00
00
e0
e0
ENDCHAR
STARTCHAR at
ENCODING 64
SWIDTH 861 0
DWIDTH 16 0
BBX 13 13 2 0
BITMAP
07c0
1830
2018
4708
4cc8
8888
9988
9188
9a90
9de0
4000
2080
1f00
ENDCHAR
STARTCHAR A
ENCODING 65
SWIDTH 765 0
DWIDTH 14 0
BBX 14 13 0 0
BITMAP
00c0
00e0
01e0
01e0
0260
0460
0470
0870
1ff0
1030
2038
6038
f07c
ENDCHAR
STARTCHAR B
ENCODING 66
SWIDTH 651 0
DWIDTH 12 0
BBX 12 13 1 0
BITMAP
3fe0
0c70
0c70
1c70
1c60
1cc0
1f80
18e0
3860
3860
38e0
31c0
ff80
ENDCHAR
STARTCHAR C
ENCODING 67
SWIDTH 740 0
DWIDTH 13 0
BBX 13 13 2 0
BITMAP
03f8
0c18
1818
3010
7000
6000
e000
e000
e000
e000
7000
7860
1f80
ENDCHAR
STARTCHAR D
ENCODING 68
SWIDTH 822 0
DWIDTH 15 0
BBX 15 13 0 0
BITMAP
3ff8
0e1c
0c0e
1c0e
1c0e
1c0e
1c0e
180e
381c
381c
3838
7870
ffc0
ENDCHAR
STARTCHAR E
ENCODING 69
SWIDTH 630 0
DWIDTH 11 0
BBX 12 13 1 0
BITMAP
3ff0
0c30
1c00
1c00
1c00
1c40
1f80
3880
3800
3800
3840
70c0
ffc0
ENDCHAR
STARTCHAR F
ENCODING 70
SWIDTH 602 0
DWIDTH 11 0
BBX 12 13 1 0
BITMAP
3ff0
0c30
1c30
1c00
1c00
1c40
1f80
3880
3800
3800
3800
7000
fc00
ENDCHAR
STARTCHAR G
ENCODING 71
SWIDTH 780 0
DWIDTH 14 0
BBX 13 13 2 0
BITMAP
03f8
0e18
1818
3000
7000
6000
e000
e1f8
e070
e0e0
60e0
70e0
1f80
ENDCHAR
STARTCHAR H
ENCODING 72
SWIDTH 827 0
DWIDTH 15 0
BBX 16 13 1 0
BITMAP
3f3f
0e0e
1c1c
1c1c
1c1c
1c1c
1ff8
3838
3838
3838
3838
7070
fcfc
ENDCHAR
STARTCHAR I
ENCODING 73
SWIDTH 372 0
DWIDTH 7 0
BBX 8 13 1 0
BITMAP
3f
0e
1c
1c
1c
1c
18
38
38
38
38
70
fc
ENDCHAR
STARTCHAR J
ENCODING 74
SWIDTH 478 0
DWIDTH 9 0
BBX 11 16 0 -3
BITMAP
07e0
03c0
0380
0380
0380
0380
0300
0700
0700
0700
0700
0600
0e00
ce00
cc00
f000
ENDCHAR
STARTCHAR K
ENCODING 75
SWIDTH 746 0
DWIDTH 13 0
BBX 14 13 1 0
BITMAP
3f3c
0e10
0c20
1c40
1d80
1a00
1f00
1b80
3bc0
39c0
30e0
70f0
f9f8
ENDCHAR
STARTCHAR L
ENCODING 76
SWIDTH 611 0
DWIDTH 11 0
BBX 11 13 0 0
BITMAP
1f00
0e00
0c00
1c00
1c00
1c00
1c00
1800
3800
3800
3820
3860
ffc0
ENDCHAR
STARTCHAR M
ENCODING 77
SWIDTH 926 0
DWIDTH 17 0
BBX 18 13 1 0
BITMAP
3c03c0
0e0780
0e0700
1e0f00
161700
131600
132600
134600
334e00
218e00
210c00
600c00
f03f00
ENDCHAR
STARTCHAR N
ENCODING 78
SWIDTH 797 0
DWIDTH 14 0
BBX 16 13 0 0
BITMAP
3c0f
0e06
0e04
1f04
1b0c
1388
11c8
11c8
30e8
20f8
2070
6030
f030
ENDCHAR
STARTCHAR O
ENCODING 79
SWIDTH 831 0
DWIDTH 15 0
BBX 14 13 2 0
BITMAP
03e0
0c30
1818
301c
701c
601c
e018
e038
e038
e070
e060
71c0
1f00
ENDCHAR
STARTCHAR P
ENCODING 80
SWIDTH 628 0
DWIDTH 11 0
BBX 12 13 1 0
BITMAP
3fe0
0c70
1c70
1c70
1c70
1860
18c0
3f80
3800
3800
3000
7000
fc00
ENDCHAR
STARTCHAR Q
ENCODING 81
SWIDTH 835 0
DWIDTH 15 0
BBX 15 16 2 -3
BITMAP
03e0
0c30
1818
3018
701c
601c
e018
e038
e038
e070
e070
71e0
1f80
0100
00c0
003e
ENDCHAR
STARTCHAR R
ENCODING 82
SWIDTH 711 0
DWIDTH 13 0
BBX 12 13 1 0
BITMAP
3fe0
0c70
1c70
1c70
1c60
18e0
1f80
3b80
3980
39c0
30c0
70e0
f8f0
ENDCHAR
STARTCHAR S
ENCODING 83
SWIDTH 587 0
DWIDTH 11 0
BBX 10 13 2 0
BITMAP
0fc0
18c0
38c0
3000
3800
3c00
1f00
0700
0380
0380
c380
c700
fc00
ENDCHAR
STARTCHAR T
ENCODING 84
SWIDTH 716 0
DWIDTH 13 0
BBX 13 13 2 0
BITMAP
fff8
c718
8718
0600
0e00
0e00
0e00
0e00
0c00
1c00
1c00
1c00
7e00
ENDCHAR
STARTCHAR U
ENCODING 85
SWIDTH 775 0
DWIDTH 14 0
BBX 13 13 3 0
BITMAP
fc78
7030
7020
7020
7020
6020
e020
e040
e040
e040
e080
7180
3e00
ENDCHAR
STARTCHAR V
ENCODING 86
SWIDTH 741 0
DWIDTH 13 0
BBX 14 13 2 0
BITMAP
f83c
7018
7010
3020
3820
3840
3880
1880
1d00
1f00
1e00
1c00
0c00
ENDCHAR
STARTCHAR W
ENCODING 87
SWIDTH 922 0
DWIDTH 17 0
BBX 17 13 2 0
BITMAP
f8c380
70c100
71c200
71c200
72c400
72c400
74c800
74d800
78d000
38f000
30e000
30c000
20c000
ENDCHAR
STARTCHAR X
ENCODING 88
SWIDTH 672 0
DWIDTH 12 0
BBX 14 13 0 0
BITMAP
1f1c
0e18
0e30
0720
0740
0380
0380
0780
0dc0
19c0
30e0
60e0
e1f0
ENDCHAR
STARTCHAR Y
ENCODING 89
SWIDTH 669 0
DWIDTH 12 0
BBX 12 13 3 0
BITMAP
f870
7060
7040
3880
3900
1a00
1e00
1c00
1c00
1c00
1800
3800
7e00
ENDCHAR
STARTCHAR Z
ENCODING 90
SWIDTH 684 0
DWIDTH 12 0
BBX 12 13 1 0
BITMAP
1ff0
10e0
11e0
01c0
0380
0700
0f00
0e00
1c00
3800
7040
70c0
ffc0
ENDCHAR
STARTCHAR bracketleft
ENCODING 91
SWIDTH 336 0
DWIDTH 6 0
BBX 7 16 1 -3
BITMAP
1e
18
18
38
30
30
30
30
70
60
60
60
60
e0
c0
f0
ENDCHAR
STARTCHAR backslash
ENCODING 92
SWIDTH 515 0
DWIDTH 9 0
BBX 5 16 3 -3
BITMAP
80
80
40
40
40
40
20
20
20
20
10
10
10
10
08
08
ENDCHAR
STARTCHAR bracketright
ENCODING 93
SWIDTH 336 0
DWIDTH 6 0
BBX 7 16 0 -3
BITMAP
1e
06
0e
0c
0c
0c
0c
1c
18
18
18
18
38
30
30
f0
ENDCHAR
STARTCHAR asciicircum
ENCODING 94
SWIDTH 636 0
DWIDTH 11 0
BBX 10 11 1 2
BITMAP
0200
0200
0700
0700
0d00
1980
1180
3080
2080
40c0
c0c0
ENDCHAR
STARTCHAR underscore
ENCODING 95
SWIDTH 500 0
DWIDTH 9 0
BBX 8 1 0 -1
BITMAP
ff
ENDCHAR
STARTCHAR grave
ENCODING 96
SWIDTH 599 0
DWIDTH 11 0
BBX 4 3 6 10
BITMAP
e0
60
30
ENDCHAR
STARTCHAR a
ENCODING 97
SWIDTH 634 0
DWIDTH 11 0
BBX 11 9 1 0
BITMAP
07e0
18e0
30c0
61c0
61c0
e3c0
e5c0
f980
73e0
ENDCHAR
STARTCHAR b
ENCODING 98
SWIDTH 633 0
DWIDTH 11 0
BBX 11 13 1 0
BITMAP
7c00
1800
3800
3800
39c0
33e0
74e0
78e0
70c0
60c0
6180
e300
fc00
ENDCHAR
STARTCHAR c
ENCODING 99
SWIDTH 524 0
DWIDTH 9 0
BBX 9 9 1 0
BITMAP
0f80
3980
7180
6000
e000
e000
e000
e100
7e00
ENDCHAR
STARTCHAR d
ENCODING 100
SWIDTH 634 0
DWIDTH 11 0
BBX 11 13 1 0
BITMAP
01e0
00e0
00c0
00c0
0fc0
11c0
31c0
6180
6380
e580
ef80
fb80
73c0
ENDCHAR
STARTCHAR e
ENCODING 101
SWIDTH 548 0
DWIDTH 10 0
BBX 9 9 1 0
BITMAP
0f00
3380
6380
6300
e700
fc00
e000
e180
7e00
ENDCHAR
STARTCHAR f
ENCODING 102
SWIDTH 415 0
DWIDTH 7 0
BBX 10 17 1 -3
BITMAP
07c0
0cc0
0cc0
1c00
1800
7f00
3800
3800
3800
3000
7000
7000
7000
6000
6000
e000
e000
ENDCHAR
STARTCHAR g
ENCODING 103
SWIDTH 628 0
DWIDTH 11 0
BBX 11 12 1 -3
BITMAP
07e0
18e0
30e0
30c0
71c0
63c0
67c0
7d80
7380
8380
c300
7c00
ENDCHAR
STARTCHAR h
ENCODING 104
SWIDTH 656 0
DWIDTH 12 0
BBX 10 13 2 0
BITMAP
7800
3800
3800
3800
3180
37c0
75c0
79c0
7180
6180
6380
e380
e3c0
ENDCHAR
STARTCHAR i
ENCODING 105
SWIDTH 319 0
DWIDTH 6 0
BBX 5 13 2 0
BITMAP
38
38
00
00
f0
70
70
70
60
60
e0
e0
f0
ENDCHAR
STARTCHAR j
ENCODING 106
SWIDTH 381 0
DWIDTH 7 0
BBX 10 17 -1 -4
BITMAP
01c0
01c0
0000
0000
0780
0380
0380
0300
0700
0700
0700
0700
0600
0e00
cc00
cc00
f000
ENDCHAR
STARTCHAR k
ENCODING 107
SWIDTH 626 0
DWIDTH 11 0
BBX 10 13 2 0
BITMAP
7800
3800
3800
3800
31c0
31c0
7380
7e00
7c00
6e00
6700
e380
e3c0
ENDCHAR
STARTCHAR l
ENCODING 108
SWIDTH 319 0
DWIDTH 6 0
BBX 5 13 2 0
BITMAP
78
38
38
30
30
70
70
70
60
60
e0
e0
f0
ENDCHAR
STARTCHAR m
ENCODING 109
SWIDTH 969 0
DWIDTH 17 0
BBX 16 9 2 0
BITMAP
f9ce
37df
75f7
79e7
71c6
6186
618e
e38e
e38f
ENDCHAR
STARTCHAR n
ENCODING 110
SWIDTH 656 0
DWIDTH 12 0
BBX 10 9 2 0
BITMAP
f180
37c0
7dc0
79c0
7180
6180
6380
e380
e3c0
ENDCHAR
STARTCHAR o
ENCODING 111
SWIDTH 599 0
DWIDTH 11 0
BBX 10 9 1 0
BITMAP
0f80
39c0
71c0
61c0
e1c0
e180
e380
e300
7c00
ENDCHAR
STARTCHAR p
ENCODING 112
SWIDTH 639 0
DWIDTH 11 0
BBX 11 12 1 -3
BITMAP
79c0
3be0
3ee0
3ce0
38e0
70c0
7180
7100
7e00
e000
e000
e000
ENDCHAR
STARTCHAR q
ENCODING 113
SWIDTH 630 0
DWIDTH 11 0
BBX 11 12 1 -3
BITMAP
07e0
18e0
30c0
61c0
61c0
e3c0
e5c0
f980
7380
0380
0380
0300
ENDCHAR
STARTCHAR r
ENCODING 114
SWIDTH 496 0
DWIDTH 9 0
BBX 9 9 2 0
BITMAP
f180
3700
7c00
7800
7000
6000
6000
e000
e000
ENDCHAR
STARTCHAR s
ENCODING 115
SWIDTH 479 0
DWIDTH 9 0
BBX 8 9 1 0
BITMAP
1f
31
31
38
1c
0e
c6
ce
fc
ENDCHAR
STARTCHAR t
ENCODING 116
SWIDTH 375 0
DWIDTH 7 0
BBX 6 12 2 0
BITMAP
30
30
30
fc
70
60
60
60
e0
e0
e0
70
ENDCHAR
STARTCHAR u
ENCODING 117
SWIDTH 655 0
DWIDTH 12 0
BBX 10 9 2 0
BITMAP
f3c0
71c0
7180
6180
6380
e780
eb80
fb00
e3c0
ENDCHAR
STARTCHAR v
ENCODING 118
SWIDTH 584 0
DWIDTH 11 0
BBX 10 9 2 0
BITMAP
f1c0
70c0
7180
3180
3b00
3a00
3c00
1800
1000
ENDCHAR
STARTCHAR w
ENCODING 119
SWIDTH 822 0
DWIDTH 15 0
BBX 15 9 1 0
BITMAP
e18e
7186
318c
33c8
3fd8
3cf0
38e0
18c0
1080
ENDCHAR
STARTCHAR x
ENCODING 120
SWIDTH 534 0
DWIDTH 10 0
BBX 9 9 1 0
BITMAP
7180
3980
1b00
1e00
1c00
3e00
6e00
c700
c780
ENDCHAR
STARTCHAR y
ENCODING 121
SWIDTH 586 0
DWIDTH 11 0
BBX 12 12 0 -3
BITMAP
3870
1c30
1c20
0c60
0cc0
0f80
0f00
0600
0400
0800
1000
f000
ENDCHAR
STARTCHAR z
ENCODING 122
SWIDTH 567 0
DWIDTH 10 0
BBX 10 9 1 0
BITMAP
3fc0
2380
2700
0e00
0e00
1c00
3880
7180
ff80
ENDCHAR
STARTCHAR braceleft
ENCODING 123
SWIDTH 361 0
DWIDTH 6 0
BBX 7 16 1 -3
BITMAP
0e
1c
18
18
18
18
18
30
e0
30
70
70
e0
e0
c0
70
ENDCHAR
STARTCHAR bar
ENCODING 124
SWIDTH 253 0
DWIDTH 5 0
BBX 5 16 1 -3
BITMAP
18
18
10
10
10
30
30
20
20
60
60
40
40
40
c0
c0
ENDCHAR
STARTCHAR braceright
ENCODING 125
SWIDTH 361 0
DWIDTH 6 0
BBX 7 16 0 -3
BITMAP
1c
0e
0e
0e
1c
18
18
0e
08
30
30
30
30
30
70
e0
ENDCHAR
STARTCHAR asciitilde
ENCODING 126
SWIDTH 636 0
DWIDTH 11 0
BBX 11 4 1 3
BITMAP
3820
4c20
8640
8380
ENDCHAR
STARTCHAR nobreakspace
ENCODING 160
SWIDTH 333 0
DWIDTH 6 0
BBX 1 1 0 0
BITMAP
00
ENDCHAR
STARTCHAR Aogonek
ENCODING 161
SWIDTH 765 0
DWIDTH 14 0
BBX 14 16 0 -3
BITMAP
00c0
00e0
01e0
01e0
0260
0460
0470
0870
1ff0
1030
2038
6038
f07c
0200
0400
0700
ENDCHAR
STARTCHAR breve
ENCODING 162
SWIDTH 599 0
DWIDTH 11 0
BBX 6 3 5 10
BITMAP
84
f8
70
ENDCHAR
STARTCHAR Lstroke
ENCODING 163
SWIDTH 611 0
DWIDTH 11 0
BBX 11 13 0 0
BITMAP
1f00
0e00
0c00
1c00
1c00
1f00
7c00
5800
3800
3800
3820
3860
ffe0
ENDCHAR
STARTCHAR currency
ENCODING 164
SWIDTH 636 0
DWIDTH 12 0
BBX 13 13 1 0
BITMAP
2008
1010
1f20
0cc0
1840
1040
1040
1040
10c0
1980
2fc0
4040
8020
ENDCHAR
STARTCHAR Lcaron
ENCODING 165
SWIDTH 722 0
DWIDTH 13 0
BBX 13 14 0 0
BITMAP
0038
1f38
0e10
0c30
1c60
1c00
1c00
1c00
1800
3800
3800
3820
3860
ffc0
ENDCHAR
STARTCHAR Sacute
ENCODING 166
SWIDTH 587 0
DWIDTH 11 0
BBX 11 17 2 0
BITMAP
00e0
0180
0300
0000
0fc0
18c0
38c0
3000
3800
3c00
1f00
0700
0380
0380
c380
c700
fc00
ENDCHAR
STARTCHAR section
ENCODING 167
SWIDTH 636 0
DWIDTH 11 0
BBX 10 16 2 -3
BITMAP
0fc0
18c0
30c0
3800
3c00
1f00
3780
6380
7180
7d00
3e00
0f00
0300
c300
c700
fc00
ENDCHAR
STARTCHAR diaeresis
ENCODING 168
SWIDTH 599 0
DWIDTH 11 0
BBX 6 1 5 12
BITMAP
cc
ENDCHAR
STARTCHAR Scaron
ENCODING 169
SWIDTH 587 0
DWIDTH 11 0
BBX 10 17 2 0
BITMAP
08c0
0580
0700
0000
0fc0
18c0
38c0
3000
3800
3c00
1f00
0700
0380
0380
c380
c700
fc00
ENDCHAR
STARTCHAR Scedilla
ENCODING 170
SWIDTH 587 0
DWIDTH 11 0
BBX 10 16 2 -3
BITMAP
0fc0
18c0
38c0
3000
3800
3c00
1f00
0700
0380
0380
c380
c700
fc00
0c00
0400
1c00
ENDCHAR
STARTCHAR Tcaron
ENCODING 171
SWIDTH 716 0
DWIDTH 13 0
BBX 13 17 2 0
BITMAP
08c0
0580
0700
0000
fff8
c718
8718
0600
0e00
0e00
0e00
0e00
0c00
1c00
1c00
1c00
7e00
ENDCHAR
STARTCHAR Zacute
ENCODING 172
SWIDTH 684 0
DWIDTH 12 0
BBX 12 17 1 0
BITMAP
0070
00c0
0180
0000
1ff0
10e0
11e0
01c0
0380
0700
0f00
0e00
1c00
3800
7040
70c0
ffc0
ENDCHAR
STARTCHAR hyphen
ENCODING 173
SWIDTH 289 0
DWIDTH 5 0
BBX 4 1 2 5
BITMAP
f0
ENDCHAR
STARTCHAR Zcaron
ENCODING 174
SWIDTH 684 0
DWIDTH 12 0
BBX 12 17 1 0
BITMAP
0460
02c0
0380
0000
1ff0
10e0
11e0
01c0
0380
0700
0f00
0e00
1c00
3800
7040
70c0
ffc0
ENDCHAR
STARTCHAR Zabovedot
ENCODING 175
SWIDTH 684 0
DWIDTH 12 0
BBX 12 16 1 0
BITMAP
0380
0380
0000
1ff0
10e0
11e0
01c0
0380
0700
0f00
0e00
1c00
3800
7040
70c0
ffc0
ENDCHAR
STARTCHAR degree
ENCODING 176
SWIDTH 259 0
DWIDTH 5 0
BBX 3 3 4 10
BITMAP
e0
a0
e0
ENDCHAR
STARTCHAR aogonek
ENCODING 177
SWIDTH 634 0
DWIDTH 11 0
BBX 11 12 1 -3
BITMAP
07e0
18e0
30c0
61c0
61c0
e3c0
e5c0
f980
73e0
0400
0800
0e00
ENDCHAR
STARTCHAR ogonek
ENCODING 178
SWIDTH 599 0
DWIDTH 11 0
BBX 3 3 3 -3
BITMAP
40
80
e0
ENDCHAR
STARTCHAR lstroke
ENCODING 179
SWIDTH 319 0
DWIDTH 6 0
BBX 7 13 1 0
BITMAP
3c
1c
1c
18
18
3e
38
f8
30
70
70
70
78
ENDCHAR
STARTCHAR acute
ENCODING 180
SWIDTH 599 0
DWIDTH 11 0
BBX 5 3 6 10
BITMAP
38
60
c0
ENDCHAR
STARTCHAR lcaron
ENCODING 181
SWIDTH 611 0
DWIDTH 11 0
BBX 10 14 2 0
BITMAP
01c0
79c0
3880
3980
3300
3000
7000
7000
7000
6000
6000
e000
e000
f000
ENDCHAR
STARTCHAR sacute
ENCODING 182
SWIDTH 479 0
DWIDTH 9 0
BBX 9 13 1 0
BITMAP
0380
0600
0c00
0000
1f00
3100
3100
3800
1c00
0e00
c600
ce00
fc00
ENDCHAR
STARTCHAR caron
ENCODING 183
SWIDTH 599 0
DWIDTH 11 0
BBX 6 3 5 10
BITMAP
8c
58
70
ENDCHAR
STARTCHAR cedilla
ENCODING 184
SWIDTH 599 0
DWIDTH 11 0
BBX 3 3 3 -3
BITMAP
60
20
e0
ENDCHAR
STARTCHAR scaron
ENCODING 185
SWIDTH 479 0
DWIDTH 9 0
BBX 8 13 1 0
BITMAP
23
16
1c
00
1f
31
31
38
1c
0e
c6
ce
fc
ENDCHAR
STARTCHAR scedilla
ENCODING 186
SWIDTH 479 0
DWIDTH 9 0
BBX 8 12 1 -3
BITMAP
1f
31
31
38
1c
0e
c6
ce
fc
18
08
38
ENDCHAR
STARTCHAR tcaron
ENCODING 187
SWIDTH 555 0
DWIDTH 10 0
BBX 9 15 2 0
BITMAP
0380
0380
0100
3300
3600
3000
fc00
7000
6000
6000
6000
e000
e000
e000
7000
ENDCHAR
STARTCHAR zacute
ENCODING 188
SWIDTH 567 0
DWIDTH 10 0
BBX 10 13 1 0
BITMAP
01c0
0300
0600
0000
3fc0
2380
2700
0e00
0e00
1c00
3880
7180
ff80
ENDCHAR
STARTCHAR doubleacute
ENCODING 189
SWIDTH 599 0
DWIDTH 11 0
BBX 7 3 6 10
BITMAP
36
68
90
ENDCHAR
STARTCHAR zcaron
ENCODING 190
SWIDTH 567 0
DWIDTH 10 0
BBX 10 13 1 0
BITMAP
1180
0b00
0e00
0000
3fc0
2380
2700
0e00
0e00
1c00
3880
7180
ff80
ENDCHAR
STARTCHAR zabovedot
ENCODING 191
SWIDTH 567 0
DWIDTH 10 0
BBX 10 12 1 0
BITMAP
0e00
0e00
0000
3fc0
2380
2700
0e00
0e00
1c00
3880
7180
ff80
ENDCHAR
STARTCHAR Racute
ENCODING 192
SWIDTH 711 0
DWIDTH 13 0
BBX 12 17 1 0
BITMAP
0070
00c0
0180
0000
3fe0
0c70
1c70
1c70
1c60
18e0
1f80
3b80
3980
39c0
30c0
70e0
f8f0
ENDCHAR
STARTCHAR Aacute
ENCODING 193
SWIDTH 765 0
DWIDTH 14 0
BBX 14 17 0 0
BITMAP
0038
0060
00c0
0000
00c0
00e0
01e0
01e0
0260
0460
0470
0870
1ff0
1030
2038
6038
f07c
ENDCHAR
STARTCHAR Acircumflex
ENCODING 194
SWIDTH 765 0
DWIDTH 14 0
BBX 14 17 0 0
BITMAP
0070
00f0
0198
0000
00c0
00e0
01e0
01e0
0260
0460
0470
0870
1ff0
1030
2038
6038
f07c
ENDCHAR
STARTCHAR Abreve
ENCODING 195
SWIDTH 765 0
DWIDTH 14 0
BBX 14 17 0 0
BITMAP
0108
01f0
00e0
0000
00c0
00e0
01e0
01e0
0260
0460
0470
0870
1ff0
1030
2038
6038
f07c
ENDCHAR
STARTCHAR Adiaeresis
ENCODING 196
SWIDTH 765 0
DWIDTH 14 0
BBX 14 15 0 0
BITMAP
0198
0000
00c0
00e0
01e0
01e0
0260
0460
0470
0870
1ff0
1030
2038
6038
f07c
ENDCHAR
STARTCHAR Lacute
ENCODING 197
SWIDTH 611 0
DWIDTH 11 0
BBX 11 17 0 0
BITMAP
01c0
0300
0600
0000
1f00
0e00
0c00
1c00
1c00
1c00
1c00
1800
3800
3800
3820
3860
ffc0
ENDCHAR
STARTCHAR Cacute
ENCODING 198
SWIDTH 740 0
DWIDTH 13 0
BBX 13 17 2 0
BITMAP
0038
0060
00c0
0000
03f8
0c18
1818
3010
7000
6000
e000
e000
e000
e000
7000
7860
1f80
ENDCHAR
STARTCHAR Ccedilla
ENCODING 199
SWIDTH 740 0
DWIDTH 13 0
BBX 13 16 2 -3
BITMAP
03f8
0c18
1818
3010
7000
6000
e000
e000
e000
e000
7000
7860
1f80
0800
0400
1c00
ENDCHAR
STARTCHAR Ccaron
ENCODING 200
SWIDTH 740 0
DWIDTH 13 0
BBX 13 17 2 0
BITMAP
0230
0160
01c0
0000
03f8
0c18
1818
3010
7000
6000
e000
e000
e000
e000
7000
7860
1f80
ENDCHAR
STARTCHAR Eacute
ENCODING 201
SWIDTH 630 0
DWIDTH 11 0
BBX 12 17 1 0
BITMAP
00e0
0180
0300
0000
3ff0
0c30
1c00
1c00
1c00
1c40
1f80
3880
3800
3800
3840
70c0
ffc0
ENDCHAR
STARTCHAR Eogonek
ENCODING 202
SWIDTH 630 0
DWIDTH 11 0
BBX 12 16 1 -3
BITMAP
3ff0
0c30
1c00
1c00
1c00
1c40
1f80
3880
3800
3800
3840
70c0
ffc0
0400
0800
0e00
ENDCHAR
STARTCHAR Ediaeresis
ENCODING 203
SWIDTH 630 0
DWIDTH 11 0
BBX 12 15 1 0
BITMAP
0660
0000
3ff0
0c30
1c00
1c00
1c00
1c40
1f80
3880
3800
3800
3840
70c0
ffc0
ENDCHAR
STARTCHAR Ecaron
ENCODING 204
SWIDTH 630 0
DWIDTH 11 0
BBX 12 17 1 0
BITMAP
0460
02c0
0380
0000
3ff0
0c30
1c00
1c00
1c00
1c40
1f80
3880
3800
3800
3840
70c0
ffc0
ENDCHAR
STARTCHAR Iacute
ENCODING 205
SWIDTH 372 0
DWIDTH 7 0
BBX 9 17 1 0
BITMAP
0380
0600
0c00
0000
3f00
0e00
1c00
1c00
1c00
1c00
1800
3800
3800
3800
3800
7000
fc00
ENDCHAR
STARTCHAR Icircumflex
ENCODING 206
SWIDTH 372 0
DWIDTH 7 0
BBX 8 17 1 0
BITMAP
0e
1e
33
00
3f
0e
1c
1c
1c
1c
18
38
38
38
38
70
fc
ENDCHAR
STARTCHAR Dcaron
ENCODING 207
SWIDTH 822 0
DWIDTH 15 0
BBX 15 17 0 0
BITMAP
0230
0160
01c0
0000
3ff8
0e1c
0c0e
1c0e
1c0e
1c0e
1c0e
180e
381c
381c
3838
7870
ffc0
ENDCHAR
STARTCHAR Dstroke
ENCODING 208
SWIDTH 822 0
DWIDTH 15 0
BBX 15 13 0 0
BITMAP
3ff8
0e1c
0c0e
1c0e
1c0e
1c0e
7f8e
180e
381c
381c
3838
78f0
ffc0
ENDCHAR
STARTCHAR Nacute
ENCODING 209
SWIDTH 797 0
DWIDTH 14 0
BBX 16 17 0 0
BITMAP
001c
0030
0060
0000
3c0f
0e06
0e04
1f04
1b0c
1388
11c8
11c8
30e8
20f8
2070
6030
f030
ENDCHAR
STARTCHAR Ncaron
ENCODING 210
SWIDTH 797 0
DWIDTH 14 0
BBX 16 17 0 0
BITMAP
0118
00b0
00e0
0000
3c0f
0e06
0e04
1f04
1b0c
1388
11c8
11c8
30e8
20f8
2070
6030
f030
ENDCHAR
STARTCHAR Oacute
ENCODING 211
SWIDTH 831 0
DWIDTH 15 0
BBX 14 17 2 0
BITMAP
0070
00c0
0180
0000
03e0
0c30
1818
301c
701c
601c
e018
e038
e038
e070
e060
71c0
1f00
ENDCHAR
STARTCHAR Ocircumflex
ENCODING 212
SWIDTH 831 0
DWIDTH 15 0
BBX 14 17 2 0
BITMAP
01c0
03c0
0660
0000
03e0
0c30
1818
301c
701c
601c
e018
e038
e038
e070
e060
71c0
1f00
ENDCHAR
STARTCHAR Odoubleacute
ENCODING 213
SWIDTH 831 0
DWIDTH 15 0
BBX 14 17 2 0
BITMAP
006c
00d0
0120
0000
03e0
0c30
1818
301c
701c
601c
e018
e038
e038
e070
e060
71c0
1f00
ENDCHAR
STARTCHAR Odiaeresis
ENCODING 214
SWIDTH 831 0
DWIDTH 15 0
BBX 14 15 2 0
BITMAP
0660
0000
03e0
0c30
1818
301c
701c
601c
e018
e038
e038
e070
e060
71c0
1f00
ENDCHAR
STARTCHAR multiply
ENCODING 215
SWIDTH 636 0
DWIDTH 11 0
BBX 12 11 1 0
BITMAP
2010
3020
1840
0980
0f00
0600
0f00
1900
2180
40c0
8040
ENDCHAR
STARTCHAR Rcaron
ENCODING 216
SWIDTH 711 0
DWIDTH 13 0
BBX 12 17 1 0
BITMAP
0460
02c0
0380
0000
3fe0
0c70
1c70
1c70
1c60
18e0
1f80
3b80
3980
39c0
30c0
70e0
f8f0
ENDCHAR
STARTCHAR Uring
ENCODING 217
SWIDTH 775 0
DWIDTH 14 0
BBX 13 17 3 0
BITMAP
0700
0500
0700
0000
fc78
7030
7020
7020
7020
6020
e020
e040
e040
e040
e080
7180
3e00
ENDCHAR
STARTCHAR Uacute
ENCODING 218
SWIDTH 775 0
DWIDTH 14 0
BBX 13 17 3 0
BITMAP
01c0
0300
0600
0000
fc78
7030
7020
7020
7020
6020
e020
e040
e040
e040
e080
7180
3e00
ENDCHAR
STARTCHAR Udoubleacute
ENCODING 219
SWIDTH 775 0
DWIDTH 14 0
BBX 13 17 3 0
BITMAP
01b0
0340
0480
0000
fc78
7030
7020
7020
7020
6020
e020
e040
e040
e040
e080
7180
3e00
ENDCHAR
STARTCHAR Udiaeresis
ENCODING 220
SWIDTH 775 0
DWIDTH 14 0
BBX 13 15 3 0
BITMAP
0cc0
0000
fc78
7030
7020
7020
7020
6020
e020
e040
e040
e040
e080
7180
3e00
ENDCHAR
STARTCHAR Yacute
ENCODING 221
SWIDTH 669 0
DWIDTH 12 0
BBX 12 17 3 0
BITMAP
01c0
0300
0600
0000
f870
7060
7040
3880
3900
1a00
1e00
1c00
1c00
1c00
1800
3800
7e00
ENDCHAR
STARTCHAR Tcedilla
ENCODING 222
SWIDTH 716 0
DWIDTH 13 0
BBX 13 16 2 -3
BITMAP
fff8
c718
8718
0600
0e00
0e00
0e00
0e00
0c00
1c00
1c00
1c00
7e00
0300
0100
0700
ENDCHAR
STARTCHAR ssharp
ENCODING 223
SWIDTH 656 0
DWIDTH 12 0
BBX 11 17 1 -3
BITMAP
07c0
0cc0
1ce0
18c0
1880
3900
3b00
3b80
31c0
30e0
7060
7460
74e0
6780
6000
e000
e000
ENDCHAR
STARTCHAR racute
ENCODING 224
SWIDTH 496 0
DWIDTH 9 0
BBX 9 13 2 0
BITMAP
0380
0600
0c00
0000
f180
3700
7c00
7800
7000
6000
6000
e000
e000
ENDCHAR
STARTCHAR aacute
ENCODING 225
SWIDTH 634 0
DWIDTH 11 0
BBX 11 13 1 0
BITMAP
00e0
0180
0300
0000
07e0
18e0
30c0
61c0
61c0
e3c0
e5c0
f980
73e0
ENDCHAR
STARTCHAR acircumflex
ENCODING 226
SWIDTH 634 0
DWIDTH 11 0
BBX 11 13 1 0
BITMAP
0380
0780
0cc0
0000
07e0
18e0
30c0
61c0
61c0
e3c0
e5c0
f980
73e0
ENDCHAR
STARTCHAR abreve
ENCODING 227
SWIDTH 634 0
DWIDTH 11 0
BBX 11 13 1 0
BITMAP
0840
0f80
0700
0000
07e0
18e0
30c0
61c0
61c0
e3c0
e5c0
f980
73e0
ENDCHAR
STARTCHAR adiaeresis
ENCODING 228
SWIDTH 634 0
DWIDTH 11 0
BBX 11 11 1 0
BITMAP
0660
0000
07e0
18e0
30c0
61c0
61c0
e3c0
e5c0
f980
73e0
ENDCHAR
STARTCHAR lacute
ENCODING 229
SWIDTH 319 0
DWIDTH 6 0
BBX 8 17 2 0
BITMAP
07
0c
18
00
78
38
38
30
30
70
70
70
60
60
e0
e0
f0
ENDCHAR
STARTCHAR cacute
ENCODING 230
SWIDTH 524 0
DWIDTH 9 0
BBX 10 13 1 0
BITMAP
01c0
0300
0600
0000
0f80
3980
7180
6000
e000
e000
e000
e100
7e00
ENDCHAR
STARTCHAR ccedilla
ENCODING 231
SWIDTH 524 0
DWIDTH 9 0
BBX 9 12 1 -3
BITMAP
0f80
3980
7180
6000
e000
e000
e000
e100
7e00
2000
1000
7000
ENDCHAR
STARTCHAR ccaron
ENCODING 232
SWIDTH 524 0
DWIDTH 9 0
BBX 9 13 1 0
BITMAP
1180
0b00
0e00
0000
0f80
3980
7180
6000
e000
e000
e000
e100
7e00
ENDCHAR
STARTCHAR eacute
ENCODING 233
SWIDTH 548 0
DWIDTH 10 0
BBX 10 13 1 0
BITMAP
01c0
0300
0600
0000
0f00
3380
6380
6300
e700
fc00
e000
e180
7e00
ENDCHAR
STARTCHAR eogonek
ENCODING 234
SWIDTH 548 0
DWIDTH 10 0
BBX 9 12 1 -3
BITMAP
0f00
3380
6380
6300
e700
fc00
e000
e180
7e00
0800
1000
1c00
ENDCHAR
STARTCHAR ediaeresis
ENCODING 235
SWIDTH 548 0
DWIDTH 10 0
BBX 9 11 1 0
BITMAP
1980
0000
0f00
3380
6380
6300
e700
fc00
e000
e180
7e00
ENDCHAR
STARTCHAR ecaron
ENCODING 236
SWIDTH 548 0
DWIDTH 10 0
BBX 9 13 1 0
BITMAP
1180
0b00
0e00
0000
0f00
3380
6380
6300
e700
fc00
e000
e180
7e00
ENDCHAR
STARTCHAR iacute
ENCODING 237
SWIDTH 319 0
DWIDTH 6 0
BBX 7 13 1 0
BITMAP
0e
18
30
00
f8
38
30
70
70
70
60
e0
f8
ENDCHAR
STARTCHAR icircumflex
ENCODING 238
SWIDTH 319 0
DWIDTH 6 0
BBX 7 13 1 0
BITMAP
1c
3c
66
00
f8
38
30
70
70
70
60
e0
f8
ENDCHAR
STARTCHAR dcaron
ENCODING 239
SWIDTH 888 0
DWIDTH 16 0
BBX 16 14 1 0
BITMAP
0007
01e7
00e2
00c6
00cc
0fc0
11c0
31c0
6180
6380
e580
ef80
fb80
73c0
ENDCHAR
STARTCHAR dstroke
ENCODING 240
SWIDTH 833 0
DWIDTH 15 0
BBX 15 13 1 0
BITMAP
01e0
00e0
0ffe
00c0
0fc0
11c0
31c0
6180
6380
e580
ef80
fb80
73c0
ENDCHAR
STARTCHAR nacute
ENCODING 241
SWIDTH 656 0
DWIDTH 12 0
BBX 10 13 2 0
BITMAP
0380
0600
0c00
0000
f180
37c0
7dc0
79c0
7180
6180
6380
e380
e3c0
ENDCHAR
STARTCHAR ncaron
ENCODING 242
SWIDTH 656 0
DWIDTH 12 0
BBX 10 13 2 0
BITMAP
2300
1600
1c00
0000
f180
37c0
7dc0
79c0
7180
6180
6380
e380
e3c0
ENDCHAR
STARTCHAR oacute
ENCODING 243
SWIDTH 599 0
DWIDTH 11 0
BBX 10 13 1 0
BITMAP
01c0
0300
0600
0000
0f80
39c0
71c0
61c0
e1c0
e180
e380
e300
7c00
ENDCHAR
STARTCHAR ocircumflex
ENCODING 244
SWIDTH 599 0
DWIDTH 11 0
BBX 10 13 1 0
BITMAP
0380
0780
0cc0
0000
0f80
39c0
71c0
61c0
e1c0
e180
e380
e300
7c00
ENDCHAR
STARTCHAR odoubleacute
ENCODING 245
SWIDTH 599 0
DWIDTH 11 0
BBX 11 13 1 0
BITMAP
0360
0680
0900
0000
0f80
39c0
71c0
61c0
e1c0
e180
e380
e300
7c00
ENDCHAR
STARTCHAR odiaeresis
ENCODING 246
SWIDTH 599 0
DWIDTH 11 0
BBX 10 11 1 0
BITMAP
0cc0
0000
0f80
39c0
71c0
61c0
e1c0
e180
e380
e300
7c00
ENDCHAR
STARTCHAR division
ENCODING 247
SWIDTH 636 0
DWIDTH 11 0
BBX 11 9 1 0
BITMAP
0600
0600
0000
0000
ffe0
0000
0000
0c00
0c00
ENDCHAR
STARTCHAR rcaron
ENCODING 248
SWIDTH 496 0
DWIDTH 9 0
BBX 9 13 2 0
BITMAP
2300
1600
1c00
0000
f180
3700
7c00
7800
7000
6000
6000
e000
e000
ENDCHAR
STARTCHAR uring
ENCODING 249
SWIDTH 655 0
DWIDTH 12 0
BBX 10 13 2 0
BITMAP
1c00
1400
1c00
0000
f3c0
71c0
7180
6180
6380
e780
eb80
fb00
e3c0
ENDCHAR
STARTCHAR uacute
ENCODING 250
SWIDTH 655 0
DWIDTH 12 0
BBX 10 13 2 0
BITMAP
01c0
0300
0600
0000
f3c0
71c0
7180
6180
6380
e780
eb80
fb00
e3c0
ENDCHAR
STARTCHAR udoubleacute
ENCODING 251
SWIDTH 655 0
DWIDTH 12 0
BBX 10 13 2 0
BITMAP
06c0
0d00
1200
0000
f3c0
71c0
7180
6180
6380
e780
eb80
fb00
e3c0
ENDCHAR
STARTCHAR udiaeresis
ENCODING 252
SWIDTH 655 0
DWIDTH 12 0
BBX 10 11 2 0
BITMAP
0cc0
0000
f3c0
71c0
7180
6180
6380
e780
eb80
fb00
e3c0
ENDCHAR
STARTCHAR yacute
ENCODING 253
SWIDTH 586 0
DWIDTH 11 0
BBX 12 16 0 -3
BITMAP
0070
00c0
0180
0000
3870
1c30
1c20
0c60
0cc0
0f80
0f00
0600
0400
0800
1000
f000
ENDCHAR
STARTCHAR tcedilla
ENCODING 254
SWIDTH 375 0
DWIDTH 7 0
BBX 6 15 2 -3
BITMAP
30
30
30
fc
70
60
60
60
e0
e0
e0
70
30
10
70
ENDCHAR
STARTCHAR abovedot
ENCODING 255
SWIDTH 599 0
DWIDTH 11 0
BBX 3 2 6 11
BITMAP
e0
e0
ENDCHAR
ENDFONT
